name Visual3d_SIMM_grf.mot
datacolumns 19
datarows 43
range 1.340000 1.760000
endheader
time	ground_force_vx	ground_force_vy	ground_force_vz	ground_force_px	ground_force_py	ground_force_pz	l_ground_force_vx	l_ground_force_vy	l_ground_force_vz	l_ground_force_px	l_ground_force_py	l_ground_force_pz	ground_torque_x	ground_torque_y	ground_torque_z	l_ground_torque_x	l_ground_torque_y	l_ground_torque_z
1.340000	6.858426	171.494614	-30.600428	0.392446	-0.002693	0.102091	-1.583999	75.430649	22.197119	0.452996	0.000000	-0.239886	-0.000391	-0.117706	0.002213	0.004063	-0.440844	-0.009430
1.350000	7.626851	191.785782	-32.783218	0.391133	-0.003062	0.103813	-0.739985	52.847054	16.443888	0.446694	-0.001542	-0.234370	-0.000724	-0.217905	0.004096	0.003606	-0.391232	-0.008369
1.360000	8.148860	209.854889	-33.640450	0.390185	-0.003122	0.105325	-0.253673	34.247211	10.988742	0.436315	-0.002779	-0.226891	-0.001069	-0.321624	0.006046	0.003236	-0.351155	-0.007511
1.370000	8.486506	224.243317	-33.258705	0.389599	-0.002955	0.106748	-0.019259	20.206568	6.361902	0.416824	-0.003836	-0.212994	-0.001385	-0.416769	0.007834	0.002846	-0.308863	-0.006607
1.380000	8.729452	234.107574	-31.844898	0.389303	-0.002645	0.108150	0.000000	0.000000	0.000000	0.000000	0.000000	0.000000	-0.001642	-0.494206	0.009290	0.000000	0.000000	0.000000
1.390000	8.979923	239.332092	-29.658812	0.389190	-0.002259	0.109594	0.000000	0.000000	0.000000	0.000000	0.000000	0.000000	-0.001825	-0.549169	0.010323	0.000000	0.000000	0.000000
1.400000	9.325439	240.362137	-26.980618	0.389143	-0.001843	0.111172	0.000000	0.000000	0.000000	0.000000	0.000000	0.000000	-0.001931	-0.581198	0.010925	0.000000	0.000000	0.000000
1.410000	9.790295	237.927994	-24.089451	0.389082	-0.001426	0.113000	0.000000	0.000000	0.000000	0.000000	0.000000	0.000000	-0.001970	-0.592922	0.011146	0.000000	0.000000	0.000000
1.420000	10.317648	232.844788	-21.218529	0.388968	-0.001025	0.115189	0.000000	0.000000	0.000000	0.000000	0.000000	0.000000	-0.001955	-0.588257	0.011058	0.000000	0.000000	0.000000
1.430000	10.795903	225.890793	-18.525839	0.388792	-0.000654	0.117823	0.000000	0.000000	0.000000	0.000000	0.000000	0.000000	-0.001895	-0.570182	0.010718	0.000000	0.000000	0.000000
1.440000	11.106489	217.763840	-16.098890	0.388580	-0.000324	0.120938	0.000000	0.000000	0.000000	0.000000	0.000000	0.000000	-0.001796	-0.540477	0.010160	0.000000	0.000000	0.000000
1.450000	11.174291	209.090790	-13.958896	0.388366	-0.000050	0.124518	0.000000	0.000000	0.000000	0.000000	0.000000	0.000000	-0.001660	-0.499592	0.009391	0.000000	0.000000	0.000000
1.460000	10.987451	200.428177	-12.078909	0.388183	0.000163	0.128498	0.000000	0.000000	0.000000	0.000000	0.000000	0.000000	-0.001490	-0.448311	0.008427	0.000000	0.000000	0.000000
1.470000	10.585455	192.246735	-10.403674	0.388041	0.000321	0.132777	0.000000	0.000000	0.000000	0.000000	0.000000	0.000000	-0.001289	-0.387889	0.007292	0.000000	0.000000	0.000000
1.480000	10.037386	184.908752	-8.876129	0.387943	0.000441	0.137227	0.000000	0.000000	0.000000	0.000000	0.000000	0.000000	-0.001065	-0.320481	0.006024	0.000000	0.000000	0.000000
1.490000	9.421935	178.661072	-7.451708	0.387888	0.000549	0.141713	0.000000	0.000000	0.000000	0.000000	0.000000	0.000000	-0.000828	-0.249158	0.004684	0.000000	0.000000	0.000000
1.500000	8.808924	173.645416	-6.103568	0.387872	0.000670	0.146116	0.000000	0.000000	0.000000	0.000000	0.000000	0.000000	-0.000587	-0.176671	0.003321	0.000000	0.000000	0.000000
1.510000	8.259615	169.899338	-4.813298	0.387890	0.000820	0.150360	0.000000	0.000000	0.000000	0.000000	0.000000	0.000000	-0.000347	-0.104339	0.001961	0.000000	0.000000	0.000000
1.520000	7.828861	167.379288	-3.567765	0.387930	0.000999	0.154422	0.000000	0.000000	0.000000	0.000000	0.000000	0.000000	-0.000110	-0.033039	0.000621	0.000000	0.000000	0.000000
1.530000	7.563869	165.989548	-2.359324	0.387981	0.001199	0.158324	0.000000	0.000000	0.000000	0.000000	0.000000	0.000000	0.000119	0.035774	-0.000672	0.000000	0.000000	0.000000
1.540000	7.492769	165.612183	-1.183328	0.388025	0.001409	0.162110	0.000000	0.000000	0.000000	0.000000	0.000000	0.000000	0.000333	0.100119	-0.001882	0.000000	0.000000	0.000000
1.550000	7.609375	166.146683	-0.028296	0.388052	0.001614	0.165808	0.000000	0.000000	0.000000	0.000000	0.000000	0.000000	0.000528	0.158824	-0.002986	0.000000	0.000000	0.000000
1.560000	7.872547	167.545563	1.126433	0.388061	0.001805	0.169416	0.000000	0.000000	0.000000	0.000000	0.000000	0.000000	0.000709	0.213279	-0.004009	0.000000	0.000000	0.000000
1.570000	8.227025	169.810349	2.311125	0.388074	0.001976	0.172885	0.000000	0.000000	0.000000	0.000000	0.000000	0.000000	0.000885	0.266489	-0.005009	0.000000	0.000000	0.000000
1.580000	8.623642	172.982635	3.562462	0.388117	0.002133	0.176150	0.000000	0.000000	0.000000	0.000000	0.000000	0.000000	0.001067	0.321223	-0.006038	0.000000	0.000000	0.000000
1.590000	9.030406	177.118393	4.922498	0.388214	0.002282	0.179144	0.000000	0.000000	0.000000	0.000000	0.000000	0.000000	0.001260	0.379106	-0.007126	0.000000	0.000000	0.000000
1.600000	9.437576	182.253571	6.440733	0.388369	0.002431	0.181819	0.000000	0.000000	0.000000	0.000000	0.000000	0.000000	0.001462	0.440029	-0.008272	0.000000	0.000000	0.000000
1.610000	9.851399	188.382980	8.177863	0.388576	0.002581	0.184152	0.000000	0.000000	0.000000	0.000000	0.000000	0.000000	0.001671	0.502955	-0.009455	0.000000	0.000000	0.000000
1.620000	10.279634	195.429428	10.197284	0.388827	0.002732	0.186153	0.000000	0.000000	0.000000	0.000000	0.000000	0.000000	0.001883	0.566825	-0.010655	0.000000	0.000000	0.000000
1.630000	10.717851	203.221817	12.550486	0.389107	0.002877	0.187874	0.000000	0.000000	0.000000	0.000000	0.000000	0.000000	0.002097	0.631133	-0.011864	0.000000	0.000000	0.000000
1.640000	11.152317	211.495560	15.257248	0.389417	0.003008	0.189400	0.000000	0.000000	0.000000	0.000000	0.000000	0.000000	0.002315	0.696747	-0.013097	0.000000	0.000000	0.000000
1.650000	11.573049	219.899673	18.293251	0.389773	0.003110	0.190831	0.000000	0.000000	0.000000	0.000000	0.000000	0.000000	0.002539	0.764015	-0.014362	0.000000	0.000000	0.000000
1.660000	11.993224	228.002441	21.594219	0.390210	0.003172	0.192256	0.000000	0.000000	0.000000	0.000000	0.000000	0.000000	0.002760	0.830791	-0.015617	0.000000	0.000000	0.000000
1.670000	12.443502	235.267944	25.077877	0.390765	0.003185	0.193742	0.000000	0.000000	0.000000	0.000000	0.000000	0.000000	0.002962	0.891504	-0.016758	0.000000	0.000000	0.000000
1.680000	12.926465	241.028427	28.647291	0.391470	0.003147	0.195320	0.000000	0.000000	0.000000	0.000000	0.000000	0.000000	0.003123	0.939830	-0.017667	0.000000	0.000000	0.000000
1.690000	13.385596	244.512558	32.192451	0.392334	0.003059	0.196993	0.000000	0.000000	0.000000	0.000000	0.000000	0.000000	0.003229	0.971695	-0.018266	0.000000	0.000000	0.000000
1.700000	13.705761	244.907242	35.591129	0.393334	0.002927	0.198736	0.000000	0.000000	0.000000	0.000000	0.000000	0.000000	0.003276	0.985991	-0.018535	0.000000	0.000000	0.000000
1.710000	13.739830	241.451691	38.686745	0.394431	0.002769	0.200501	0.000000	0.000000	0.000000	0.000000	0.000000	0.000000	0.003271	0.984353	-0.018504	0.000000	0.000000	0.000000
1.720000	13.345634	233.553177	41.273434	0.395586	0.002604	0.202213	0.000000	0.000000	0.000000	0.000000	0.000000	0.000000	0.003220	0.969138	-0.018218	0.000000	0.000000	0.000000
1.730000	12.424441	220.870712	43.089062	0.396776	0.002432	0.203745	0.000000	0.000000	0.000000	0.000000	0.000000	0.000000	0.003130	0.941921	-0.017706	0.000000	0.000000	0.000000
1.740000	10.950001	203.375565	43.830315	0.397995	0.002220	0.204890	0.000000	0.000000	0.000000	0.000000	0.000000	0.000000	0.002998	0.902286	-0.016961	0.000000	0.000000	0.000000
1.750000	8.984426	181.420776	43.195587	0.399243	0.001901	0.205332	0.000000	0.000000	0.000000	0.000000	0.000000	0.000000	0.002817	0.847934	-0.015939	0.000000	0.000000	0.000000
1.760000	6.684999	155.783859	40.952908	0.400504	0.001389	0.204644	0.000000	0.000000	0.000000	0.000000	0.000000	0.000000	0.002581	0.776750	-0.014601	0.000000	0.000000	0.000000
